# xmcd
#
# Track frame offsets: 
#        150
#        13497
#        27217
#        44727
#        58710
#        78452
#        92560
#        105905
#        120855
#        134535
#        149070
#        162692
#        176375
#        193175
#        208375
#
# Disc length: 2977 seconds
#
# Revision: 5
# Processed by: cddbd v1.5.2PL0 Copyright (c) Steve Scherf et al.
# Submitted via: ExactAudioCopy v1.0b1
#
DISCID=de0b9f0f
DTITLE=John Lee Hooker - The Complete 50s Chess Recordings - Disc 2
DYEAR=1998
DGENRE=Blues
TTITLE0=Walkin' The Boogie (mono)
TTITLE1=Love Blues (mono)
TTITLE2=Lonely Boy Boogie (New Boogie) (mono)
TTITLE3=Apologize (mono)
TTITLE4=The Journey (mono)
TTITLE5=Worried Life Blues (mono)
TTITLE6=Down At The Landing (mono)
TTITLE7=You Have Two Hearts (mono)
TTITLE8=It's My Own Fault (mono)
TTITLE9=Blues For Big Town (mono)
TTITLE10=Women And Money (mono)
TTITLE11=Big Fine Woman (mono)
TTITLE12=Tell Me Baby (mono)
TTITLE13=Blues For Christmas (mono)
TTITLE14=Cry Baby Cry (mono)
EXTD=
EXTT0=
EXTT1=
EXTT2=
EXTT3=
EXTT4=
EXTT5=
EXTT6=
EXTT7=
EXTT8=
EXTT9=
EXTT10=
EXTT11=
EXTT12=
EXTT13=
EXTT14=
PLAYORDER=
